<svg width="43" height="39" viewBox="0 0 43 39" fill="none" xmlns="http://www.w3.org/2000/svg">
<path d="M10.7121 17.3438C11.097 16.6771 12.0593 16.6771 12.4442 17.3438L20.7391 31.7109C21.124 32.3776 20.6428 33.2109 19.873 33.2109H3.28323C2.51343 33.2109 2.0323 32.3776 2.4172 31.7109L10.7121 17.3438Z" fill="url(#paint0_linear)"/>
<path d="M12.4356 32.0865C12.0472 32.7338 11.109 32.7338 10.7206 32.0865L7.00245 25.8895C6.60253 25.223 7.08264 24.375 7.85994 24.375L15.2963 24.375C16.0736 24.375 16.5537 25.223 16.1538 25.8895L12.4356 32.0865Z" fill="#070025"/>
<path d="M30.2121 17.3438C30.597 16.6771 31.5593 16.6771 31.9442 17.3438L40.2391 31.7109C40.624 32.3776 40.1428 33.2109 39.373 33.2109H22.7832C22.0134 33.2109 21.5323 32.3776 21.9172 31.7109L30.2121 17.3438Z" fill="url(#paint1_linear)"/>
<path d="M31.9356 32.0865C31.5472 32.7338 30.609 32.7338 30.2206 32.0865L26.5024 25.8895C26.1025 25.223 26.5826 24.375 27.3599 24.375L34.7963 24.375C35.5736 24.375 36.0537 25.223 35.6538 25.8895L31.9356 32.0865Z" fill="#070025"/>
<path d="M22.1941 28.9687C21.8092 29.6354 20.847 29.6354 20.4621 28.9687L14.2781 18.2578C13.8932 17.5911 14.3744 16.7578 15.1442 16.7578L27.5121 16.7578C28.2819 16.7578 28.763 17.5911 28.3781 18.2578L22.1941 28.9687Z" fill="url(#paint2_linear)"/>
<path d="M22.1941 28.9687C21.8092 29.6354 20.847 29.6354 20.4621 28.9687L14.2781 18.2578C13.8932 17.5911 14.3744 16.7578 15.1442 16.7578L27.5121 16.7578C28.2819 16.7578 28.763 17.5911 28.3781 18.2578L22.1941 28.9687Z" fill="url(#paint3_linear)"/>
<path d="M20.4706 17.9464C20.859 17.2991 21.7972 17.2991 22.1856 17.9464L24.7492 22.219C25.1491 22.8856 24.669 23.7335 23.8917 23.7335L18.7646 23.7335C17.9873 23.7335 17.5071 22.8856 17.9071 22.219L20.4706 17.9464Z" fill="#070025"/>
<path d="M20.3813 1.44747C20.7688 0.795048 21.7133 0.795046 22.1008 1.44746L29.7676 14.3548C30.1635 15.0214 29.6831 15.8655 28.9078 15.8655L13.5743 15.8655C12.799 15.8655 12.3186 15.0214 12.7146 14.3548L20.3813 1.44747Z" fill="url(#paint4_linear)"/>
<path d="M22.092 14.7653C21.7013 15.3983 20.7809 15.3983 20.3901 14.7653L17.0281 9.31882C16.6169 8.65259 17.0961 7.79356 17.8791 7.79356L24.6031 7.79356C25.386 7.79356 25.8653 8.6526 25.454 9.31883L22.092 14.7653Z" fill="#070025"/>
<defs>
<linearGradient id="paint0_linear" x1="11.5781" y1="15.8437" x2="11.5781" y2="39" gradientUnits="userSpaceOnUse">
<stop stop-color="#E9E9E9"/>
<stop offset="1" stop-color="white" stop-opacity="0"/>
</linearGradient>
<linearGradient id="paint1_linear" x1="31.0781" y1="15.8437" x2="31.0781" y2="39" gradientUnits="userSpaceOnUse">
<stop stop-color="#E9E9E9"/>
<stop offset="1" stop-color="white" stop-opacity="0"/>
</linearGradient>
<linearGradient id="paint2_linear" x1="21.3281" y1="30.4687" x2="21.3281" y2="12.1875" gradientUnits="userSpaceOnUse">
<stop stop-color="#E9E9E9"/>
<stop offset="1" stop-color="white" stop-opacity="0"/>
</linearGradient>
<linearGradient id="paint3_linear" x1="21.3281" y1="30.4687" x2="21.3281" y2="12.1875" gradientUnits="userSpaceOnUse">
<stop stop-color="#E9E9E9"/>
<stop offset="1" stop-color="white" stop-opacity="0"/>
</linearGradient>
<linearGradient id="paint4_linear" x1="21.2411" y1="0" x2="21.2411" y2="21.154" gradientUnits="userSpaceOnUse">
<stop stop-color="#E9E9E9"/>
<stop offset="1" stop-color="white" stop-opacity="0"/>
</linearGradient>
</defs>
</svg>
